<svg id="cloud_storage" data-name="cloud storage" xmlns="http://www.w3.org/2000/svg" width="202.281" height="141.597" viewBox="0 0 202.281 141.597">
  <path id="Icon_awesome-cloud" data-name="Icon awesome-cloud" d="M169.916,63.756A30.378,30.378,0,0,0,141.6,22.478,30.187,30.187,0,0,0,124.75,27.6,50.574,50.574,0,0,0,30.342,52.82c0,.853.032,1.707.063,2.56a45.525,45.525,0,0,0,15.108,88.466H161.825a40.454,40.454,0,0,0,8.091-80.091Z" transform="translate(0 -2.25)" fill="#69cae3" opacity="0.9"/>
  <path id="Icon_awesome-file" data-name="Icon awesome-file" d="M15.75,9.563V0H1.688A1.683,1.683,0,0,0,0,1.688V34.313A1.683,1.683,0,0,0,1.688,36H25.313A1.683,1.683,0,0,0,27,34.313V11.25H17.438A1.692,1.692,0,0,1,15.75,9.563ZM27,8.571V9H18V0h.429a1.686,1.686,0,0,1,1.2.492l6.884,6.891A1.682,1.682,0,0,1,27,8.571Z" transform="translate(39 86)" fill="#fff"/>
  <path id="Icon_awesome-photo-video" data-name="Icon awesome-photo-video" d="M42.75,0H11.25A2.25,2.25,0,0,0,9,2.25V9H20.25V4.5h13.5V27h9A2.25,2.25,0,0,0,45,24.75V2.25A2.25,2.25,0,0,0,42.75,0ZM16.313,7.242a.633.633,0,0,1-.633.633H13.57a.633.633,0,0,1-.633-.633V5.133A.633.633,0,0,1,13.57,4.5H15.68a.633.633,0,0,1,.633.633Zm24.75,14.625a.633.633,0,0,1-.633.633H38.32a.633.633,0,0,1-.633-.633V19.758a.633.633,0,0,1,.633-.633H40.43a.633.633,0,0,1,.633.633Zm0-7.312a.633.633,0,0,1-.633.633H38.32a.633.633,0,0,1-.633-.633V12.445a.633.633,0,0,1,.633-.633H40.43a.633.633,0,0,1,.633.633Zm0-7.312a.633.633,0,0,1-.633.633H38.32a.633.633,0,0,1-.633-.633V5.133A.633.633,0,0,1,38.32,4.5H40.43a.633.633,0,0,1,.633.633ZM29.25,11.25h-27A2.25,2.25,0,0,0,0,13.5V33.75A2.25,2.25,0,0,0,2.25,36h27a2.25,2.25,0,0,0,2.25-2.25V13.5A2.25,2.25,0,0,0,29.25,11.25Zm-22.5,4.5A2.25,2.25,0,1,1,4.5,18a2.25,2.25,0,0,1,2.25-2.25ZM27,31.5H4.5V29.25L9,24.75,11.25,27l9-9L27,24.75Z" transform="translate(78.2 38)" fill="#fff"/>
  <path id="Icon_awesome-music" data-name="Icon awesome-music" d="M36,2.251A2.248,2.248,0,0,0,33.074.105L10.575,6.75A2.249,2.249,0,0,0,9,8.895V27.276A9.727,9.727,0,0,0,6.75,27C3.022,27,0,29.014,0,31.5S3.022,36,6.75,36s6.75-2.014,6.75-4.5V15.069l18-5.275V22.776a9.727,9.727,0,0,0-2.25-.276c-3.728,0-6.75,2.014-6.75,4.5s3.022,4.5,6.75,4.5S36,29.486,36,27V2.251Z" transform="translate(123 86.001)" fill="#fff"/>
</svg>
