<svg xmlns="http://www.w3.org/2000/svg" width="212" height="139" viewBox="0 0 212 139">
  <g id="laptop" transform="translate(-628 -1126)">
    <g id="laptop-2" data-name="laptop" transform="translate(628 1126)">
      <g id="Rectangle_3" data-name="Rectangle 3" transform="translate(11)" fill="#ebf9ff" stroke="#707070" stroke-width="6">
        <path d="M8,0H182a8,8,0,0,1,8,8V128a0,0,0,0,1,0,0H0a0,0,0,0,1,0,0V8A8,8,0,0,1,8,0Z" stroke="none"/>
        <path d="M8,3H182a5,5,0,0,1,5,5V122a3,3,0,0,1-3,3H6a3,3,0,0,1-3-3V8A5,5,0,0,1,8,3Z" fill="none"/>
      </g>
      <g id="Rectangle_4" data-name="Rectangle 4" transform="translate(0 122)" fill="rgba(112,112,112,0.35)" stroke="#707070" stroke-width="6">
        <path d="M2,0H210a2,2,0,0,1,2,2V5a12,12,0,0,1-12,12H12A12,12,0,0,1,0,5V2A2,2,0,0,1,2,0Z" stroke="none"/>
        <path d="M4,3H208a1,1,0,0,1,1,1V5a9,9,0,0,1-9,9H12A9,9,0,0,1,3,5V4A1,1,0,0,1,4,3Z" fill="none"/>
      </g>
    </g>
    <g id="document" transform="translate(667 1139)">
      <rect id="Rectangle_5" data-name="Rectangle 5" width="134" height="108" fill="#fff"/>
      <line id="Line_5" data-name="Line 5" x2="22" transform="translate(56.5 12.5)" fill="none" stroke="#707070" stroke-width="1" opacity="0.7"/>
      <line id="Line_6" data-name="Line 6" x2="67" transform="translate(36.5 22.5)" fill="none" stroke="#707070" stroke-width="1" opacity="0.7"/>
      <line id="Line_7" data-name="Line 7" x2="82" transform="translate(27.5 33.034)" fill="none" stroke="#707070" stroke-width="1" opacity="0.7"/>
      <line id="Line_8" data-name="Line 8" x2="53" transform="translate(40.5 43.483)" fill="none" stroke="#707070" stroke-width="1" opacity="0.7"/>
      <line id="Line_9" data-name="Line 9" x2="64" transform="translate(36.5 53.931)" fill="none" stroke="#707070" stroke-width="1" opacity="0.7"/>
      <line id="Line_10" data-name="Line 10" x2="42" transform="translate(46.5 63.379)" fill="none" stroke="#707070" stroke-width="1" opacity="0.7"/>
      <line id="Line_11" data-name="Line 11" x2="41" transform="translate(44.5 72.828)" fill="none" stroke="#707070" stroke-width="1" opacity="0.7"/>
      <line id="Line_12" data-name="Line 12" x2="54" transform="translate(40.5 83.276)" fill="none" stroke="#707070" stroke-width="1" opacity="0.7"/>
      <line id="Line_13" data-name="Line 13" x2="35" transform="translate(49.5 92.5)" fill="none" stroke="#707070" stroke-width="1" opacity="0.7"/>
    </g>
  </g>
</svg>
