<svg xmlns="http://www.w3.org/2000/svg" xmlns:xlink="http://www.w3.org/1999/xlink" width="463" height="645" viewBox="0 0 463 645">
  <defs>
    <linearGradient id="linear-gradient" x1="0.5" x2="0.5" y2="1" gradientUnits="objectBoundingBox">
      <stop offset="0" stop-color="#2f93eb"/>
      <stop offset="1" stop-color="#189dcf"/>
    </linearGradient>
  </defs>
  <g id="icon" transform="translate(-1337 -128)">
    <path id="Path_2" data-name="Path 2" d="M1651.14,436.265" fill="none" stroke="#707070" stroke-width="1"/>
    <path id="Path_3" data-name="Path 3" d="M1359.781,410.748" fill="none" stroke="#707070" stroke-width="1"/>
    <g id="iphone_server" data-name="iphone server" transform="translate(1505 343)">
      <g id="iphone_server-2" data-name="iphone server">
        <g id="Rectangle_2" data-name="Rectangle 2" fill="#ebf9ff" stroke="#707070" stroke-width="6">
          <rect width="127" height="215" rx="25" stroke="none"/>
          <rect x="3" y="3" width="121" height="209" rx="22" fill="none"/>
        </g>
      </g>
      <line id="Line_1" data-name="Line 1" x2="40" transform="translate(43.5 201.5)" fill="none" stroke="#707070" stroke-linecap="round" stroke-width="6"/>
      <path id="Union_1" data-name="Union 1" d="M9.881,10.862V0h33.35V.068H53S52.144,10.55,48.031,10.7c-3.3.118-4.469.153-4.8.162v0ZM4.969,10.7C.856,10.55,0,.068,0,.068H9.881V10.862S9.081,10.844,4.969,10.7Z" transform="translate(36.751 5.804)" fill="#707070" stroke="#707070" stroke-width="1"/>
    </g>
    <g id="iphone_server-3" data-name="iphone server" transform="translate(1337 558)">
      <g id="iphone_server-4" data-name="iphone server">
        <g id="Rectangle_2-2" data-name="Rectangle 2" fill="#ebf9ff" stroke="#707070" stroke-width="6">
          <rect width="127" height="215" rx="25" stroke="none"/>
          <rect x="3" y="3" width="121" height="209" rx="22" fill="none"/>
        </g>
      </g>
      <line id="Line_1-2" data-name="Line 1" x2="40" transform="translate(43.5 201.5)" fill="none" stroke="#707070" stroke-linecap="round" stroke-width="6"/>
      <path id="Union_1-2" data-name="Union 1" d="M9.881,10.862V0h33.35V.068H53S52.144,10.55,48.031,10.7c-3.3.118-4.469.153-4.8.162v0ZM4.969,10.7C.856,10.55,0,.068,0,.068H9.881V10.862S9.081,10.844,4.969,10.7Z" transform="translate(36.751 5.804)" fill="#707070" stroke="#707070" stroke-width="1"/>
    </g>
    <g id="iphone_server-5" data-name="iphone server" transform="translate(1673 558)">
      <g id="iphone_server-6" data-name="iphone server">
        <g id="Rectangle_2-3" data-name="Rectangle 2" fill="#ebf9ff" stroke="#707070" stroke-width="6">
          <rect width="127" height="215" rx="25" stroke="none"/>
          <rect x="3" y="3" width="121" height="209" rx="22" fill="none"/>
        </g>
      </g>
      <line id="Line_1-3" data-name="Line 1" x2="40" transform="translate(43.5 201.5)" fill="none" stroke="#707070" stroke-linecap="round" stroke-width="6"/>
      <path id="Union_1-3" data-name="Union 1" d="M9.881,10.862V0h33.35V.068H53S52.144,10.55,48.031,10.7c-3.3.118-4.469.153-4.8.162v0ZM4.969,10.7C.856,10.55,0,.068,0,.068H9.881V10.862S9.081,10.844,4.969,10.7Z" transform="translate(36.751 5.804)" fill="#707070" stroke="#707070" stroke-width="1"/>
    </g>
    <g id="iphone_server-7" data-name="iphone server" transform="translate(1337 128)">
      <g id="iphone_server-8" data-name="iphone server">
        <g id="Rectangle_2-4" data-name="Rectangle 2" fill="#ebf9ff" stroke="#707070" stroke-width="6">
          <rect width="127" height="215" rx="25" stroke="none"/>
          <rect x="3" y="3" width="121" height="209" rx="22" fill="none"/>
        </g>
      </g>
      <line id="Line_1-4" data-name="Line 1" x2="40" transform="translate(43.5 201.5)" fill="none" stroke="#707070" stroke-linecap="round" stroke-width="6"/>
      <path id="Union_1-4" data-name="Union 1" d="M9.881,10.862V0h33.35V.068H53S52.144,10.55,48.031,10.7c-3.3.118-4.469.153-4.8.162v0ZM4.969,10.7C.856,10.55,0,.068,0,.068H9.881V10.862S9.081,10.844,4.969,10.7Z" transform="translate(36.751 5.804)" fill="#707070" stroke="#707070" stroke-width="1"/>
    </g>
    <g id="iphone_server-9" data-name="iphone server" transform="translate(1673 128)">
      <g id="iphone_server-10" data-name="iphone server">
        <g id="Rectangle_2-5" data-name="Rectangle 2" fill="#ebf9ff" stroke="#707070" stroke-width="6">
          <rect width="127" height="215" rx="25" stroke="none"/>
          <rect x="3" y="3" width="121" height="209" rx="22" fill="none"/>
        </g>
      </g>
      <line id="Line_1-5" data-name="Line 1" x2="40" transform="translate(43.5 201.5)" fill="none" stroke="#707070" stroke-linecap="round" stroke-width="6"/>
      <path id="Union_1-5" data-name="Union 1" d="M9.881,10.862V0h33.35V.068H53S52.144,10.55,48.031,10.7c-3.3.118-4.469.153-4.8.162v0ZM4.969,10.7C.856,10.55,0,.068,0,.068H9.881V10.862S9.081,10.844,4.969,10.7Z" transform="translate(36.751 5.804)" fill="#707070" stroke="#707070" stroke-width="1"/>
    </g>
    <g id="Icon_awesome-database" data-name="Icon awesome-database" transform="translate(1535.851 406.827)">
      <path id="Icon_awesome-database-2" data-name="Icon awesome-database" d="M65.676,12.462v7.789c0,6.864-14.709,12.462-32.838,12.462S0,27.114,0,20.251V12.462C0,5.6,14.709,0,32.838,0S65.676,5.6,65.676,12.462Zm0,17.524V47.511c0,6.864-14.709,12.462-32.838,12.462S0,54.375,0,47.511V29.986c7.055,5.647,19.968,8.276,32.838,8.276S58.621,35.633,65.676,29.986Zm0,27.26V74.771c0,6.864-14.709,12.462-32.838,12.462S0,81.635,0,74.771V57.247c7.055,5.647,19.968,8.276,32.838,8.276S58.621,62.894,65.676,57.247Z" fill="url(#linear-gradient)"/>
    </g>
    <g id="line" transform="translate(1481.5 585)">
      <circle id="Ellipse_1" data-name="Ellipse 1" cx="17" cy="17" r="17" transform="translate(70.5 71)" fill="#d8e338"/>
      <line id="Line_2" data-name="Line 2" x2="71" transform="translate(105 87.5)" fill="none" stroke="#d8e338" stroke-linecap="round" stroke-width="8"/>
      <line id="Line_4" data-name="Line 4" x2="71" transform="translate(87.5) rotate(90)" fill="none" stroke="#d8e338" stroke-linecap="round" stroke-width="8"/>
      <line id="Line_3" data-name="Line 3" x2="71" transform="translate(0 87.5)" fill="none" stroke="#d8e338" stroke-linecap="round" stroke-width="8"/>
    </g>
    <g id="Component_3_1" data-name="Component 3 – 1" transform="translate(1481.5 362.5) rotate(90)">
      <circle id="Ellipse_1-2" data-name="Ellipse 1" cx="17" cy="17" r="17" transform="translate(70.5 71)" fill="#d8e338"/>
      <line id="Line_2-2" data-name="Line 2" x2="71" transform="translate(105 87.5)" fill="none" stroke="#d8e338" stroke-linecap="round" stroke-width="8"/>
      <line id="Line_4-2" data-name="Line 4" x2="71" transform="translate(87.5) rotate(90)" fill="none" stroke="#d8e338" stroke-linecap="round" stroke-width="8"/>
      <line id="Line_3-2" data-name="Line 3" x2="71" transform="translate(0 87.5)" fill="none" stroke="#d8e338" stroke-linecap="round" stroke-width="8"/>
    </g>
    <g id="Component_3_2" data-name="Component 3 – 2" transform="translate(1657.5 538.5) rotate(-90)">
      <circle id="Ellipse_1-3" data-name="Ellipse 1" cx="17" cy="17" r="17" transform="translate(70.5 71)" fill="#d8e338"/>
      <line id="Line_2-3" data-name="Line 2" x2="71" transform="translate(105 87.5)" fill="none" stroke="#d8e338" stroke-linecap="round" stroke-width="8"/>
      <line id="Line_4-3" data-name="Line 4" x2="71" transform="translate(87.5) rotate(90)" fill="none" stroke="#d8e338" stroke-linecap="round" stroke-width="8"/>
      <line id="Line_3-3" data-name="Line 3" x2="71" transform="translate(0 87.5)" fill="none" stroke="#d8e338" stroke-linecap="round" stroke-width="8"/>
    </g>
    <g id="Component_3_3" data-name="Component 3 – 3" transform="translate(1657 318) rotate(180)">
      <circle id="Ellipse_1-4" data-name="Ellipse 1" cx="17" cy="17" r="17" transform="translate(70.5 71)" fill="#d8e338"/>
      <line id="Line_2-4" data-name="Line 2" x2="71" transform="translate(105 87.5)" fill="none" stroke="#d8e338" stroke-linecap="round" stroke-width="8"/>
      <line id="Line_4-4" data-name="Line 4" x2="71" transform="translate(87.5) rotate(90)" fill="none" stroke="#d8e338" stroke-linecap="round" stroke-width="8"/>
      <line id="Line_3-4" data-name="Line 3" x2="71" transform="translate(0 87.5)" fill="none" stroke="#d8e338" stroke-linecap="round" stroke-width="8"/>
    </g>
    <path id="Icon_awesome-image" data-name="Icon awesome-image" d="M67.063,60H6.938A6.937,6.937,0,0,1,0,53.063V11.437A6.937,6.937,0,0,1,6.938,4.5H67.063A6.937,6.937,0,0,1,74,11.437V53.063A6.937,6.937,0,0,1,67.063,60ZM16.188,12.594a8.094,8.094,0,1,0,8.094,8.094A8.094,8.094,0,0,0,16.188,12.594ZM9.25,50.75h55.5V34.563L52.1,21.914a1.735,1.735,0,0,0-2.453,0L30.063,41.5l-8.024-8.024a1.735,1.735,0,0,0-2.453,0L9.25,43.813Z" transform="translate(1364 203.5)" fill="#b574d5"/>
    <path id="Icon_awesome-play-circle" data-name="Icon awesome-play-circle" d="M28.313.563a27.75,27.75,0,1,0,27.75,27.75A27.745,27.745,0,0,0,28.313.563ZM41.259,31,21.565,42.3a2.69,2.69,0,0,1-3.995-2.35V16.675a2.692,2.692,0,0,1,3.995-2.35L41.259,26.3A2.694,2.694,0,0,1,41.259,31Z" transform="translate(1708.438 207.438)" fill="#dc5454"/>
    <path id="Icon_awesome-file" data-name="Icon awesome-file" d="M24.836,15.079V0H2.661A2.655,2.655,0,0,0,0,2.661V54.107a2.655,2.655,0,0,0,2.661,2.661H39.915a2.655,2.655,0,0,0,2.661-2.661V17.74H27.5A2.669,2.669,0,0,1,24.836,15.079Zm17.74-1.563v.676H28.384V0h.676a2.659,2.659,0,0,1,1.885.776L41.8,11.642A2.653,2.653,0,0,1,42.576,13.516Z" transform="translate(1379 637)" fill="#3dd5e1"/>
    <path id="Icon_awesome-music" data-name="Icon awesome-music" d="M55.7,3.483A3.479,3.479,0,0,0,51.177.164L16.363,10.445a3.481,3.481,0,0,0-2.437,3.318V42.2a15.05,15.05,0,0,0-3.482-.426C4.676,41.778,0,44.9,0,48.742S4.676,55.7,10.445,55.7s10.445-3.117,10.445-6.963V23.317l27.852-8.162V35.242a15.05,15.05,0,0,0-3.482-.426c-5.768,0-10.445,3.117-10.445,6.963s4.676,6.963,10.445,6.963S55.7,45.624,55.7,41.778V3.483Z" transform="translate(1709 638.001)" fill="#57e38a"/>
  </g>
</svg>
