<svg id="multi_browser" data-name="multi browser" xmlns="http://www.w3.org/2000/svg" width="169.643" height="142.377" viewBox="0 0 169.643 142.377">
  <path id="Icon_awesome-firefox" data-name="Icon awesome-firefox" d="M73.938,35.621c-.108-.7-.217-1.1-.217-1.1s-.278.309-.727.912a25.166,25.166,0,0,0-.9-4.887,33.656,33.656,0,0,0-2.242-5.784A23.58,23.58,0,0,0,67.8,21.239c-.278-.418-.572-.835-.866-1.222-1.361-2.227-2.938-3.6-4.748-6.186A18.8,18.8,0,0,1,59.8,7.4a26.612,26.612,0,0,0-1.144,4.222c-1.871-1.887-3.48-3.217-4.469-4.129C49.395,2.975,49.952.64,49.952.64s-9.016,10.068-5.119,20.553a20.184,20.184,0,0,0,6.712,8.954c3.773,3.124,7.856,5.567,10.006,11.846A20.208,20.208,0,0,0,54,34.029a18.262,18.262,0,0,1,1.438,7.191,17.084,17.084,0,0,1-17.1,17.073,16.367,16.367,0,0,1-3.789-.433,15.951,15.951,0,0,1-4.237-1.438,17.265,17.265,0,0,1-5.072-4.686l-.031-.046.309.108a14.873,14.873,0,0,0,2.165.572,13.413,13.413,0,0,0,8.6-1.021c2.706-1.5,4.33-2.614,5.66-2.165h.031c1.3.418,2.32-.851,1.392-2.165a7.077,7.077,0,0,0-6.835-2.629c-2.706.387-5.181,2.32-8.722.448-.232-.124-.448-.247-.665-.387-.247-.139.758.2.526.046a18.014,18.014,0,0,1-2.227-1.33c-.046-.046.541.17.479.124a8.606,8.606,0,0,1-2.32-2.351,4.164,4.164,0,0,1-.155-3.727,3.186,3.186,0,0,1,1.438-1.345c.464.232.742.4.742.4s-.2-.387-.325-.588c.046-.015.077,0,.124-.031.4.17,1.284.619,1.763.9a2.26,2.26,0,0,1,.8.727s.155-.077.046-.418a2.157,2.157,0,0,0-.835-1.021h.031a8.647,8.647,0,0,1,1.021.634,4.951,4.951,0,0,0,.4-2.165,2.931,2.931,0,0,0-.17-1.206c-.124-.247.077-.34.294-.077a2.476,2.476,0,0,0-.186-.572v-.015a2.9,2.9,0,0,1,.186-.232,2.84,2.84,0,0,1,.526-.418,22.737,22.737,0,0,1,3.511-1.794c.99-.433,1.809-.758,1.98-.866a5.286,5.286,0,0,0,2.273-3.279c.015-.139.031-.278.046-.433v-.232c-.139-.541-1.067-.943-5.939-1.407a4.26,4.26,0,0,1-3.48-3.263V20.5a12.379,12.379,0,0,1,4.763-5.923c.124-.108-.495.031-.371-.077a13.011,13.011,0,0,1,1.268-.541c.217-.093-.928-.526-1.949-.418a5.254,5.254,0,0,0-1.809.433c.247-.2.959-.479.789-.479a11.761,11.761,0,0,0-3.7,1.392.648.648,0,0,1,.077-.34,5.956,5.956,0,0,0-2.32,1.778,3.792,3.792,0,0,0,.031-.418,6.157,6.157,0,0,0-1.129,1.067l-.015.015a15.274,15.274,0,0,0-8.444-.727l-.031-.015h.031a6.79,6.79,0,0,1-1.5-1.686l-.031.015-.062-.031c-.186-.278-.371-.588-.572-.928-.139-.247-.278-.526-.418-.8a.033.033,0,0,0-.031-.031c-.062,0-.093.263-.139.2v-.015a10.3,10.3,0,0,1-.68-4.052l-.031.015a4.587,4.587,0,0,0-1.717,2.242c-.139.325-.247.51-.34.7V11.79c.015-.17.093-.51.077-.479a.213.213,0,0,1-.046.062,3.965,3.965,0,0,0-.6.9,6.554,6.554,0,0,0-.356.912c-.015.046,0-.046,0-.155s.015-.309,0-.263l-.046.108A22.864,22.864,0,0,0,6.48,20.157,7.242,7.242,0,0,0,6.4,21.44v.031a16.515,16.515,0,0,0-1.964,2.645A37.47,37.47,0,0,0,.294,34.261a24.649,24.649,0,0,1,2.211-3.882A35.875,35.875,0,0,0,0,43.555a34.063,34.063,0,0,1,1.083-3.913,33.1,33.1,0,0,0,3,15.511A36.173,36.173,0,0,0,18.357,71.345a31.488,31.488,0,0,0,8.32,3.99c.387.139.789.278,1.191.418-.124-.046-.247-.108-.371-.155a37.536,37.536,0,0,0,10.795,1.593c12.944,0,17.212-4.933,17.6-5.413a6.506,6.506,0,0,0,1.531-2.057c.247-.108.495-.217.758-.325l.155-.077.294-.139a26.96,26.96,0,0,0,5.459-3.418,13.2,13.2,0,0,0,5.088-7.439,4.623,4.623,0,0,0,.062-3.433c.139-.217.263-.433.418-.665a30.4,30.4,0,0,0,4.578-14.831v-.433a18.5,18.5,0,0,0-.294-3.34ZM27.7,20.528c-.062.17-.139.356-.2.541C27.558,20.883,27.62,20.713,27.7,20.528Z" transform="translate(0 65.186)" fill="#ff8322"/>
  <path id="Icon_awesome-safari" data-name="Icon awesome-safari" d="M35.622,38.67a2.6,2.6,0,0,1,2.5-2.711,2.591,2.591,0,0,1,.2,5.177,2.606,2.606,0,0,1-2.7-2.466Zm40.911-.123A37.985,37.985,0,1,1,38.548.562,37.979,37.979,0,0,1,76.533,38.548Zm-4.074,0A33.911,33.911,0,1,0,38.548,72.458,33.906,33.906,0,0,0,72.458,38.548Zm-11.1,14.8c0,.551,1.991,1.562,2.5,1.869A30.494,30.494,0,0,1,45.792,67.971l-.674-2.834c-.046-.383-.291-.429-.643-.429-.291,0-.459.429-.429.643l.674,2.88a29.992,29.992,0,0,1-6.188.643,30.36,30.36,0,0,1-15.776-4.457,24.816,24.816,0,0,0,1.869-3.094.57.57,0,0,0-.551-.551c-.6,0-1.869,2.543-2.252,3.048A30.479,30.479,0,0,1,9.017,45.5l2.925-.643a.574.574,0,0,0,.429-.643c0-.291-.429-.459-.674-.429l-2.864.659a30.006,30.006,0,0,1,4.028-21.964,19.875,19.875,0,0,0,2.8,1.654.531.531,0,0,0,.551-.505c0-.6-2.252-1.731-2.757-2.083A30.506,30.506,0,0,1,31.808,9l.643,2.834a.574.574,0,0,0,.643.429c.306,0,.459-.429.429-.674l-.643-2.8a32.035,32.035,0,0,1,5.682-.551A30.333,30.333,0,0,1,54.63,12.862a17.026,17.026,0,0,0-1.654,2.757.531.531,0,0,0,.505.551c.6,0,1.731-2.206,2.037-2.711a30.31,30.31,0,0,1,12.514,18.1l-2.374.505c-.383.092-.429.337-.429.674,0,.291.429.459.643.429l2.42-.551a30.754,30.754,0,0,1,.6,5.928,30.177,30.177,0,0,1-4.411,15.73,20.809,20.809,0,0,0-2.543-1.486A.576.576,0,0,0,61.354,53.343Zm-5.085-37.1c-1.991,1.869-20.555,18.947-21.076,19.835L20.4,60.665c1.945-1.823,20.555-18.993,21.03-19.8L56.269,16.247Z" transform="translate(50.669 -0.563)" fill="#1da2f8" opacity="0.85"/>
  <path id="Icon_awesome-edge" data-name="Icon awesome-edge" d="M1.808,31.75l.048-.069c0,.023-.006.046-.009.069Zm65.242,2.2a34.7,34.7,0,0,0-4.08-17.339C57.165,6.212,46.882.563,34.839.563,15.017.523,3.919,15.467,1.856,31.681,7.867,23,18.44,14.488,33.074,13.979c0,0,15.535,0,14.083,14.868H22.246a22.6,22.6,0,0,1,4.864-11.18C16.48,22.609,9.85,31.279,10.007,44.342c.118,10.121,7.1,20.517,17.1,24.361,11.808,4.511,27.308,1.02,34.016-3.021V50.894c-11.455,8-38.37,8.63-38.566-9.572h44.49V33.946Z" transform="translate(102.593 68.555)" fill="#2196f3"/>
</svg>
