<svg xmlns="http://www.w3.org/2000/svg" width="154.516" height="154.516" viewBox="0 0 154.516 154.516">
  <g id="Icon_feather-wifi-off" data-name="Icon feather-wifi-off" transform="translate(5.571 5.571)" opacity="0.9">
    <path id="Path_7" data-name="Path 7" d="M1.5,1.5,141.874,141.874" transform="translate(0 0)" fill="none" stroke="#ec6565" stroke-linecap="round" stroke-linejoin="round" stroke-width="10"/>
    <path id="Path_8" data-name="Path 8" d="M25.08,16.59A69.8,69.8,0,0,1,39.628,26.1" transform="translate(76.724 49.099)" fill="none" stroke="#ec6565" stroke-linecap="round" stroke-linejoin="round" stroke-width="10"/>
    <path id="Path_9" data-name="Path 9" d="M7.5,30.49A69.8,69.8,0,0,1,40.488,15.24" transform="translate(19.523 44.707)" fill="none" stroke="#ec6565" stroke-linecap="round" stroke-linejoin="round" stroke-width="10"/>
    <path id="Path_10" data-name="Path 10" d="M16.065,7.827A102.09,102.09,0,0,1,91.8,33.031" transform="translate(47.391 19.514)" fill="none" stroke="#ec6565" stroke-linecap="round" stroke-linejoin="round" stroke-width="10"/>
    <path id="Path_11" data-name="Path 11" d="M2.13,27.556A101.516,101.516,0,0,1,32.119,9.18" transform="translate(2.05 24.989)" fill="none" stroke="#ec6565" stroke-linecap="round" stroke-linejoin="round" stroke-width="10"/>
    <path id="Path_12" data-name="Path 12" d="M12.795,29.576a38.284,38.284,0,0,1,44.346,0" transform="translate(36.751 68.335)" fill="none" stroke="#ec6565" stroke-linecap="round" stroke-linejoin="round" stroke-width="10"/>
    <path id="Path_13" data-name="Path 13" d="M18,30h0" transform="translate(53.687 92.732)" fill="none" stroke="#ec6565" stroke-linecap="round" stroke-linejoin="round" stroke-width="10"/>
  </g>
</svg>
