<svg xmlns="http://www.w3.org/2000/svg" xmlns:xlink="http://www.w3.org/1999/xlink" width="1360" height="475.5" viewBox="0 0 1360 475.5">
  <defs>
    <linearGradient id="linear-gradient" x1="0.5" x2="0.5" y2="1" gradientUnits="objectBoundingBox">
      <stop offset="0" stop-color="#1bb3ec"/>
      <stop offset="1" stop-color="#5c69e3"/>
    </linearGradient>
  </defs>
  <g id="platforms" transform="translate(-366 -1986)">
    <g id="android_phone" data-name="android phone" transform="translate(391 2092)">
      <g id="Rectangle_6" data-name="Rectangle 6" transform="translate(0 8)" fill="none" stroke="#fff" stroke-width="6">
        <rect width="149" height="274" rx="8" stroke="none"/>
        <rect x="3" y="3" width="143" height="268" rx="5" fill="none"/>
      </g>
      <path id="Rectangle_7" data-name="Rectangle 7" d="M15,0H134a15,15,0,0,1,15,15v0a0,0,0,0,1,0,0H0a0,0,0,0,1,0,0v0A15,15,0,0,1,15,0Z" fill="#fff"/>
      <path id="Rectangle_8" data-name="Rectangle 8" d="M11,0H138a11,11,0,0,1,11,11v0a0,0,0,0,1,0,0H0a0,0,0,0,1,0,0v0A11,11,0,0,1,11,0Z" transform="translate(149 287) rotate(180)" fill="#fff"/>
    </g>
    <text id="SMART_SERVER" data-name="SMART SERVER" transform="translate(366 2018)" fill="#fff" font-size="30" font-family="SegoeUI-Semilight, Segoe UI" font-weight="300"><tspan x="0" y="0">SMART SERVER</tspan></text>
    <text id="CONNECT_FROM_ANY_DEVICE" data-name="CONNECT FROM ANY DEVICE" transform="translate(1278 2018)" fill="#fff" font-size="30" font-family="SegoeUI-Semilight, Segoe UI" font-weight="300"><tspan x="0" y="0">CONNECT FROM ANY DEVICE</tspan></text>
    <g id="Group_1" data-name="Group 1">
      <path id="Icon_awesome-cloud" data-name="Icon awesome-cloud" d="M208.915,77.873A37.35,37.35,0,0,0,174.1,27.121a37.116,37.116,0,0,0-20.713,6.3A62.182,62.182,0,0,0,37.306,64.427c0,1.049.039,2.1.078,3.148A55.974,55.974,0,0,0,55.959,176.346H198.967a49.739,49.739,0,0,0,9.948-98.473Z" transform="translate(750 2145.75)" fill="#fff"/>
      <g id="Icon_awesome-database" data-name="Icon awesome-database" transform="translate(852 2219.664)" opacity="0">
        <path id="Icon_awesome-database-2" data-name="Icon awesome-database" d="M45.528,9.281v5.8c0,5.112-10.2,9.281-22.764,9.281S0,20.193,0,15.082v-5.8C0,4.169,10.2,0,22.764,0S45.528,4.169,45.528,9.281Zm0,13.051V35.384c0,5.112-10.2,9.281-22.764,9.281S0,40.5,0,35.384V22.332C4.891,26.538,13.842,28.5,22.764,28.5S40.637,26.538,45.528,22.332Zm0,20.3V55.686c0,5.112-10.2,9.281-22.764,9.281S0,60.8,0,55.686V42.634C4.891,46.84,13.842,48.8,22.764,48.8S40.637,46.84,45.528,42.634Z" fill="url(#linear-gradient)"/>
      </g>
    </g>
    <g id="laptop" transform="translate(1209 2092)">
      <g id="Rectangle_3" data-name="Rectangle 3" transform="translate(11)" fill="none" stroke="#fff" stroke-width="6">
        <path d="M8,0H182a8,8,0,0,1,8,8V128a0,0,0,0,1,0,0H0a0,0,0,0,1,0,0V8A8,8,0,0,1,8,0Z" stroke="none"/>
        <path d="M8,3H182a5,5,0,0,1,5,5V122a3,3,0,0,1-3,3H6a3,3,0,0,1-3-3V8A5,5,0,0,1,8,3Z" fill="none"/>
      </g>
      <g id="Path_17" data-name="Path 17" transform="translate(0 122)" fill="none">
        <path d="M2,0H210a2,2,0,0,1,2,2V5a12,12,0,0,1-12,12H12A12,12,0,0,1,0,5V2A2,2,0,0,1,2,0Z" stroke="none"/>
        <path d="M 6.083328247070313 6 C 6.560821533203125 8.834073066711426 9.032257080078125 11 12 11 L 200 11 C 202.9677429199219 11 205.4391784667969 8.834073066711426 205.9166717529297 6 L 6.083328247070313 6 M 2 0 L 210 0 C 211.1045684814453 0 212 0.8954334259033203 212 2 L 212 5 C 212 11.62743377685547 206.6273956298828 17 200 17 L 12 17 C 5.372604370117188 17 0 11.62743377685547 0 5 L 0 2 C 0 0.8954334259033203 0.8954315185546875 0 2 0 Z" stroke="none" fill="#fff"/>
      </g>
    </g>
    <g id="imac" transform="translate(1518 2092)">
      <g id="Rectangle_9" data-name="Rectangle 9" fill="none" stroke="#fff" stroke-width="8">
        <rect width="208" height="149" rx="20" stroke="none"/>
        <rect x="4" y="4" width="200" height="141" rx="16" fill="none"/>
      </g>
      <line id="Line_14" data-name="Line 14" x2="198" transform="translate(5.5 117.5)" fill="none" stroke="#fff" stroke-width="8"/>
      <path id="Path_18" data-name="Path 18" d="M1598.154,2139.056c.7,39.752-26.042,38.333-26.042,38.333h76.719s-26.042-5.679-24.635-38.333C1624.9,2137.637,1598.154,2139.056,1598.154,2139.056Z" transform="translate(-1507 -1993)" fill="none" stroke="#fff" stroke-width="8"/>
      <circle id="Ellipse_3" data-name="Ellipse 3" cx="6.5" cy="6.5" r="6.5" transform="translate(98 125)" fill="#fff"/>
    </g>
    <g id="iphone_server" data-name="iphone server" transform="translate(1432 2300)">
      <g id="iphone_server-2" data-name="iphone server">
        <g id="Rectangle_2" data-name="Rectangle 2" fill="none" stroke="#fff" stroke-width="6">
          <rect width="83" height="158" rx="14" stroke="none"/>
          <rect x="3" y="3" width="77" height="152" rx="11" fill="none"/>
        </g>
      </g>
      <line id="Line_1" data-name="Line 1" x1="25" transform="translate(29.5 144.5)" fill="none" stroke="#fff" stroke-linecap="round" stroke-width="6"/>
      <path id="Union_1" data-name="Union 1" d="M7.085,7.862V0H31V.05h7s-.614,7.587-3.563,7.693c-2.367.085-3.2.11-3.442.117v0ZM3.563,7.743C.614,7.636,0,.05,0,.05H7.085V7.862S6.511,7.849,3.563,7.743Z" transform="translate(22.751 5.804)" fill="#fff" stroke="#fff" stroke-width="1"/>
    </g>
    <line id="Line_15" data-name="Line 15" y2="83" transform="translate(465.5 2378.5)" fill="none" stroke="#fff" stroke-width="2"/>
    <line id="Line_16" data-name="Line 16" y2="140" transform="translate(874.5 2321.5)" fill="none" stroke="#fff" stroke-width="2"/>
    <line id="Line_19" data-name="Line 19" y2="110" transform="translate(1019.5 2160.5)" fill="none" stroke="#fff" stroke-width="2"/>
    <line id="Line_26" data-name="Line 26" y2="110" transform="translate(903.5 2269.5)" fill="none" stroke="#fff" stroke-width="2"/>
    <line id="Line_24" data-name="Line 24" y2="86" transform="translate(849.5 2072.5)" fill="none" stroke="#fff" stroke-width="2"/>
    <line id="Line_22" data-name="Line 22" y2="97" transform="translate(1470.5 2071.5)" fill="none" stroke="#fff" stroke-width="2"/>
    <line id="Line_17" data-name="Line 17" x2="410" transform="translate(464.5 2460.5)" fill="none" stroke="#fff" stroke-width="2"/>
    <line id="Line_18" data-name="Line 18" x2="198" transform="translate(1018.5 2161.5)" fill="none" stroke="#fff" stroke-width="2"/>
    <line id="Line_23" data-name="Line 23" x2="623" transform="translate(848.5 2072.5)" fill="none" stroke="#fff" stroke-width="2"/>
    <line id="Line_25" data-name="Line 25" x2="533" transform="translate(902.5 2379.5)" fill="none" stroke="#fff" stroke-width="2"/>
    <line id="Line_21" data-name="Line 21" x2="48" transform="translate(1470.5 2167.5)" fill="none" stroke="#fff" stroke-width="2"/>
    <line id="Line_20" data-name="Line 20" x2="27" transform="translate(993.5 2269.5)" fill="none" stroke="#fff" stroke-width="2"/>
  </g>
</svg>
