<svg xmlns="http://www.w3.org/2000/svg" width="200" height="200" viewBox="0 0 200 200">
  <path id="Icon_awesome-app-store-ios" data-name="Icon awesome-app-store-ios" d="M178.571,2.25H21.429A21.434,21.434,0,0,0,0,23.679V180.821A21.434,21.434,0,0,0,21.429,202.25H178.571A21.434,21.434,0,0,0,200,180.821V23.679A21.434,21.434,0,0,0,178.571,2.25ZM56.7,159.616a8.921,8.921,0,1,1-15.446-8.929l6.384-11.027q10.781-3.281,17.679,5.089Zm62.009-24.062H37.5a8.929,8.929,0,0,1,0-17.857H60.268l29.2-50.536-9.152-15.8a8.921,8.921,0,1,1,15.446-8.929L99.732,49.3l3.973-6.875a8.921,8.921,0,0,1,15.446,8.929L80.848,117.7h27.723c9.018,0,14.063,10.58,10.134,17.857Zm43.795,0H149.554l8.75,15.134a8.921,8.921,0,1,1-15.446,8.929q-22.031-38.1-33.036-57.188c-7.455-12.946-2.143-25.893,3.17-30.268q8.772,15.2,26.295,45.536H162.5a8.929,8.929,0,1,1,0,17.857Z" transform="translate(0 -2.25)" fill="#fff"/>
</svg>
